<?xml version="1.0" encoding="UTF-8"?>
<svg width="64" height="64" viewBox="0 0 64 64" fill="none" xmlns="http://www.w3.org/2000/svg">
<rect width="64" height="64" rx="12" fill="#2196F3"/>
<path d="M32 16C22 16 13.46 22.44 11 32c2.46 9.56 11 16 21 16s18.54-6.44 21-16c-2.46-9.56-11-16-21-16zm0 26c-5.52 0-10-4.48-10-10s4.48-10 10-10 10 4.48 10 10-4.48 10-10 10zm0-16c-3.32 0-6 2.68-6 6s2.68 6 6 6 6-2.68 6-6-2.68-6-6-6z" fill="#FFF"/>
<text x="32" y="52" text-anchor="middle" fill="#FFF" font-family="Arial" font-size="8" font-weight="bold">E</text>
</svg>
